<svg id="Слой_1" data-name="Слой 1" xmlns="http://www.w3.org/2000/svg" xmlns:xlink="http://www.w3.org/1999/xlink" viewBox="0 0 220.72 63.58"><defs><style>.cls-1{fill:#be415a;}.cls-2{fill:none;stroke-miterlimit:10;stroke-width:4.5px;stroke:url(#Безымянный_градиент_4);}</style><linearGradient id="Безымянный_градиент_4" x1="9.78" y1="41.19" x2="60.22" y2="41.19" gradientUnits="userSpaceOnUse"><stop offset="0" stop-color="#c1395f"/><stop offset="1" stop-color="#e8ab5a"/></linearGradient></defs><title>rossgram</title><path class="cls-1" d="M76.94,55a13.39,13.39,0,0,1-6.34-1.43,10,10,0,0,1-4.17-4.1A12.92,12.92,0,0,1,65,43.12a13.48,13.48,0,0,1,.84-4.89,10.16,10.16,0,0,1,2.42-3.71A10.55,10.55,0,0,1,72,32.17a14.28,14.28,0,0,1,4.93-.81,13.36,13.36,0,0,1,6.34,1.43,10.27,10.27,0,0,1,4.2,4.06A12.43,12.43,0,0,1,89,43.12a13.43,13.43,0,0,1-.85,4.94,10.76,10.76,0,0,1-2.43,3.73,10,10,0,0,1-3.8,2.37A14.46,14.46,0,0,1,76.94,55Zm0-5.21A4.54,4.54,0,0,0,79.57,49a5,5,0,0,0,1.76-2.19A9.33,9.33,0,0,0,82,43.12a7.47,7.47,0,0,0-1.38-5,4.61,4.61,0,0,0-3.65-1.59,4.88,4.88,0,0,0-2.6.69,4.52,4.52,0,0,0-1.75,2.15A9.41,9.41,0,0,0,72,43.12a7.63,7.63,0,0,0,1.39,5A4.45,4.45,0,0,0,76.94,49.76Z" transform="translate(-9.78 -9.41)"/><path class="cls-1" d="M102.76,55a13.57,13.57,0,0,1-6.44-1.45,10.12,10.12,0,0,1-4.22-4.13,12.9,12.9,0,0,1-1.47-6.31,13.62,13.62,0,0,1,.83-4.89,9.84,9.84,0,0,1,2.42-3.69,10.6,10.6,0,0,1,3.85-2.33,14.78,14.78,0,0,1,5-.81,14.63,14.63,0,0,1,3,.35A12.51,12.51,0,0,1,109,32.88a2.38,2.38,0,0,1,1.27,1.18,3,3,0,0,1,.25,1.57,2.82,2.82,0,0,1-.57,1.43,2.36,2.36,0,0,1-1.23.83,2.28,2.28,0,0,1-1.66-.26,6.94,6.94,0,0,0-1.82-.73,7.17,7.17,0,0,0-1.77-.23,6.45,6.45,0,0,0-2.45.43,4.82,4.82,0,0,0-1.77,1.25,5.61,5.61,0,0,0-1.11,2,9,9,0,0,0-.39,2.77,7,7,0,0,0,1.5,4.77,5.26,5.26,0,0,0,4.22,1.73,8.54,8.54,0,0,0,1.75-.2A7,7,0,0,0,107,48.7a2.21,2.21,0,0,1,1.66-.23,2.17,2.17,0,0,1,1.18.85,2.93,2.93,0,0,1,.51,1.43,3.18,3.18,0,0,1-.28,1.57,2.42,2.42,0,0,1-1.22,1.18,13.65,13.65,0,0,1-3.14,1.13A13.85,13.85,0,0,1,102.76,55Z" transform="translate(-9.78 -9.41)"/><path class="cls-1" d="M124.45,55A13.57,13.57,0,0,1,118,53.52a10.12,10.12,0,0,1-4.22-4.13,12.9,12.9,0,0,1-1.47-6.31,13.41,13.41,0,0,1,.83-4.89,9.84,9.84,0,0,1,2.42-3.69,10.6,10.6,0,0,1,3.85-2.33,14.78,14.78,0,0,1,5-.81,14.63,14.63,0,0,1,3,.35,12.51,12.51,0,0,1,3.18,1.17,2.42,2.42,0,0,1,1.27,1.18,3,3,0,0,1,.25,1.57,2.82,2.82,0,0,1-.57,1.43,2.36,2.36,0,0,1-1.23.83,2.28,2.28,0,0,1-1.66-.26,6.94,6.94,0,0,0-1.82-.73,7.17,7.17,0,0,0-1.77-.23,6.42,6.42,0,0,0-2.45.43,4.82,4.82,0,0,0-1.77,1.25,5.61,5.61,0,0,0-1.11,2,9,9,0,0,0-.39,2.77,7,7,0,0,0,1.5,4.77,5.26,5.26,0,0,0,4.22,1.73,8.54,8.54,0,0,0,1.75-.2,7,7,0,0,0,1.84-.72,2.21,2.21,0,0,1,1.66-.23,2.17,2.17,0,0,1,1.18.85,2.93,2.93,0,0,1,.51,1.43,3.18,3.18,0,0,1-.28,1.57,2.42,2.42,0,0,1-1.22,1.18,13.65,13.65,0,0,1-3.14,1.13A13.85,13.85,0,0,1,124.45,55Z" transform="translate(-9.78 -9.41)"/><path class="cls-1" d="M139.71,54.88a3.44,3.44,0,0,1-2.61-1,3.67,3.67,0,0,1-.9-2.65V35.74a4,4,0,0,1,1-2.9,3.86,3.86,0,0,1,2.89-1h8.21a3,3,0,0,1,2.17.7,2.64,2.64,0,0,1,.74,2,2.64,2.64,0,0,1-.74,2,3.07,3.07,0,0,1-2.17.69h-5.12v14C143.17,53.68,142,54.88,139.71,54.88Z" transform="translate(-9.78 -9.41)"/><path class="cls-1" d="M156.78,63.18a3.16,3.16,0,0,1-2.43-.9,3.79,3.79,0,0,1-.83-2.65V35a3.73,3.73,0,0,1,.83-2.61,3.6,3.6,0,0,1,4.74,0,3.73,3.73,0,0,1,.82,2.61V38.1l-.47-1.8A6.46,6.46,0,0,1,162,32.72a7.71,7.71,0,0,1,4.49-1.36,8.32,8.32,0,0,1,4.82,1.43,9.32,9.32,0,0,1,3.24,4.06,15.49,15.49,0,0,1,1.16,6.27,15.85,15.85,0,0,1-1.16,6.32,9.35,9.35,0,0,1-3.21,4.1A8.35,8.35,0,0,1,166.52,55a7.69,7.69,0,0,1-4.42-1.31,6.5,6.5,0,0,1-2.62-3.44H160v9.41a3.75,3.75,0,0,1-.84,2.65A3.09,3.09,0,0,1,156.78,63.18Zm7.81-13.42A4.06,4.06,0,0,0,167,49a4.73,4.73,0,0,0,1.63-2.19,10,10,0,0,0,.58-3.71,7.85,7.85,0,0,0-1.29-5,4.1,4.1,0,0,0-3.34-1.59,4.32,4.32,0,0,0-2.43.69,4.6,4.6,0,0,0-1.65,2.15,9.83,9.83,0,0,0-.6,3.71,8,8,0,0,0,1.29,5A4.07,4.07,0,0,0,164.59,49.76Z" transform="translate(-9.78 -9.41)"/><path class="cls-1" d="M205.13,54.88a2.9,2.9,0,0,1-2.26-.85,3.47,3.47,0,0,1-.78-2.42l1.08-16.33a5.86,5.86,0,0,1,.33-2.1,2.47,2.47,0,0,1,1.06-1.29,3.48,3.48,0,0,1,1.8-.43,3.94,3.94,0,0,1,1.7.32,3.7,3.7,0,0,1,1.2.87,6.41,6.41,0,0,1,.92,1.3l6.14,12.41L222.4,34a6.21,6.21,0,0,1,.86-1.24,4,4,0,0,1,1.2-.93,3.77,3.77,0,0,1,1.72-.36,2.93,2.93,0,0,1,2.45,1,4.48,4.48,0,0,1,.78,2.83l1.09,16.33a3.47,3.47,0,0,1-.78,2.42,3,3,0,0,1-2.31.85,2.9,2.9,0,0,1-2.23-.85,3.39,3.39,0,0,1-.81-2.42l-1.09-11.72h1.15l-5.81,13a4.37,4.37,0,0,1-.83,1,2.59,2.59,0,0,1-2.95,0,5.61,5.61,0,0,1-.87-1l-5.86-13h1.15l-1.09,11.72a3.47,3.47,0,0,1-.78,2.42A2.93,2.93,0,0,1,205.13,54.88Z" transform="translate(-9.78 -9.41)"/><path class="cls-1" d="M194.21,54a3.79,3.79,0,0,1-.83-2.65l-.09-1.11h.51a6.44,6.44,0,0,1-2.59,3.44A7.57,7.57,0,0,1,186.83,55a8.19,8.19,0,0,1-4.8-1.43,9.3,9.3,0,0,1-3.18-4.1,15.85,15.85,0,0,1-1.15-6.32,15.5,15.5,0,0,1,1.15-6.27,9.26,9.26,0,0,1,3.21-4.06,8.17,8.17,0,0,1,4.77-1.43c4.27,0,6.7,2.26,7.13,3.74l-.47,1.8V33.76c.08-2.06,2-2.3,3.08-2.3a3,3,0,0,1,2.31.89,3.73,3.73,0,0,1,.83,2.61l.09,16.37A3.79,3.79,0,0,1,199,54a3.11,3.11,0,0,1-2.4.9A3,3,0,0,1,194.21,54Zm-2.1-5.86a8.16,8.16,0,0,0,1.27-5,9.83,9.83,0,0,0-.6-3.71,4.57,4.57,0,0,0-1.63-2.15,4.23,4.23,0,0,0-2.4-.69,4.06,4.06,0,0,0-3.32,1.59,7.92,7.92,0,0,0-1.27,5,10.22,10.22,0,0,0,.57,3.71A4.65,4.65,0,0,0,186.35,49a4,4,0,0,0,2.4.74A4,4,0,0,0,192.11,48.12Z" transform="translate(-9.78 -9.41)"/><path class="cls-2" d="M26.34,32.82A3.88,3.88,0,0,1,24,29.25V27.66a3.87,3.87,0,0,1,3.87-3.87h14a3.87,3.87,0,0,1,3.87,3.87v1.59a3.87,3.87,0,0,1-3.87,3.87H17.19A5.16,5.16,0,0,1,12,28V16.83a5.17,5.17,0,0,1,5.18-5.17H42.06A15.91,15.91,0,0,1,58,27.56v1.58A15.88,15.88,0,0,1,42.08,45H16.57A4.54,4.54,0,0,0,12,49.56V66.19a4.54,4.54,0,0,0,4.54,4.54h3.82a4.54,4.54,0,0,0,4.54-4.54V46" transform="translate(-9.78 -9.41)"/></svg>